{
  "accessors": [
    {
      "bufferView": 2,
      "componentType": 5126,
      "count": 65532,
      "max": [
        1.1191209554672241,
        0.9100170135498047,
        9.095312118530273
      ],
      "min": [
        -1.1194100379943848,
        -0.8974239826202393,
        2.238210916519165
      ],
      "type": "VEC3"
    },
    {
      "bufferView": 2,
      "byteOffset": 786384,
      "componentType": 5126,
      "count": 65532,
      "max": [
        0.999999463558197,
        0.9999769330024719,
        0.9999694228172302
      ],
      "min": [
        -0.9999697208404541,
        -0.999994158744812,
        -0.9999991655349731
      ],
      "type": "VEC3"
    },
    {
      "bufferView": 1,
      "componentType": 5126,
      "count": 65532,
      "max": [
        0.0,
        0.0
      ],
      "min": [
        0.0,
        0.0
      ],
      "type": "VEC2"
    },
    {
      "bufferView": 0,
      "componentType": 5125,
      "count": 385656,
      "type": "SCALAR"
    },
    {
      "bufferView": 2,
      "byteOffset": 1572768,
      "componentType": 5126,
      "count": 65532,
      "max": [
        2.4998068809509277,
        1.2618520259857178,
        7.9207072257995605
      ],
      "min": [
        -2.5255789756774902,
        -1.2106930017471313,
        -5.65214204788208
      ],
      "type": "VEC3"
    },
    {
      "bufferView": 2,
      "byteOffset": 2359152,
      "componentType": 5126,
      "count": 65532,
      "max": [
        0.9999979734420776,
        0.9999703168869019,
        0.9999920129776001
      ],
      "min": [
        -0.9999940395355225,
        -0.9999865889549255,
        -0.999951183795929
      ],
      "type": "VEC3"
    },
    {
      "bufferView": 1,
      "byteOffset": 524256,
      "componentType": 5126,
      "count": 65532,
      "max": [
        0.0,
        0.0
      ],
      "min": [
        0.0,
        0.0
      ],
      "type": "VEC2"
    },
    {
      "bufferView": 0,
      "byteOffset": 1542624,
      "componentType": 5125,
      "count": 389166,
      "type": "SCALAR"
    },
    {
      "bufferView": 2,
      "byteOffset": 3145536,
      "componentType": 5126,
      "count": 65532,
      "max": [
        0.6450999975204468,
        1.2599869966506958,
        9.761272430419922
      ],
      "min": [
        -0.6090899705886841,
        -0.6385499835014343,
        4.721218109130859
      ],
      "type": "VEC3"
    },
    {
      "bufferView": 2,
      "byteOffset": 3931920,
      "componentType": 5126,
      "count": 65532,
      "max": [
        0.9999525547027588,
        0.999998927116394,
        0.9999885559082031
      ],
      "min": [
        -0.9999992847442627,
        -0.9999735355377197,
        -0.999986469745636
      ],
      "type": "VEC3"
    },
    {
      "bufferView": 1,
      "byteOffset": 1048512,
      "componentType": 5126,
      "count": 65532,
      "max": [
        0.0,
        0.0
      ],
      "min": [
        0.0,
        0.0
      ],
      "type": "VEC2"
    },
    {
      "bufferView": 0,
      "byteOffset": 3099288,
      "componentType": 5125,
      "count": 384207,
      "type": "SCALAR"
    },
    {
      "bufferView": 2,
      "byteOffset": 4718304,
      "componentType": 5126,
      "count": 65532,
      "max": [
        1.4792189598083496,
        1.1721420288085938,
        10.132150650024414
      ],
      "min": [
        -1.4961260557174683,
        -0.6385499835014343,
        3.964545965194702
      ],
      "type": "VEC3"
    },
    {
      "bufferView": 2,
      "byteOffset": 5504688,
      "componentType": 5126,
      "count": 65532,
      "max": [
        0.9999812245368958,
        0.9999850988388062,
        0.9999964237213135
      ],
      "min": [
        -0.9999548196792603,
        -0.9999942779541016,
        -0.9999698400497437
      ],
      "type": "VEC3"
    },
    {
      "bufferView": 1,
      "byteOffset": 1572768,
      "componentType": 5126,
      "count": 65532,
      "max": [
        0.0,
        0.0
      ],
      "min": [
        0.0,
        0.0
      ],
      "type": "VEC2"
    },
    {
      "bufferView": 0,
      "byteOffset": 4636116,
      "componentType": 5125,
      "count": 376035,
      "type": "SCALAR"
    },
    {
      "bufferView": 2,
      "byteOffset": 6291072,
      "componentType": 5126,
      "count": 65532,
      "max": [
        2.4534199237823486,
        1.2653989791870117,
        8.945823669433594
      ],
      "min": [
        -1.4430869817733765,
        -0.5399730205535889,
        -1.3032150268554688
      ],
      "type": "VEC3"
    },
    {
      "bufferView": 2,
      "byteOffset": 7077456,
      "componentType": 5126,
      "count": 65532,
      "max": [
        0.9999937415122986,
        0.9999961256980896,
        0.999966561794281
      ],
      "min": [
        -0.9999879002571106,
        -0.9999996423721313,
        -0.999991238117218
      ],
      "type": "VEC3"
    },
    {
      "bufferView": 1,
      "byteOffset": 2097024,
      "componentType": 5126,
      "count": 65532,
      "max": [
        0.0,
        0.0
      ],
      "min": [
        0.0,
        0.0
      ],
      "type": "VEC2"
    },
    {
      "bufferView": 0,
      "byteOffset": 6140256,
      "componentType": 5125,
      "count": 384573,
      "type": "SCALAR"
    },
    {
      "bufferView": 2,
      "byteOffset": 7863840,
      "componentType": 5126,
      "count": 44518,
      "max": [
        1.4872280359268188,
        1.2618520259857178,
        7.18663215637207
      ],
      "min": [
        -2.5425169467926025,
        -1.218418002128601,
        -5.65214204788208
      ],
      "type": "VEC3"
    },
    {
      "bufferView": 2,
      "byteOffset": 8398056,
      "componentType": 5126,
      "count": 44518,
      "max": [
        0.9999995827674866,
        0.9999895691871643,
        0.999991238117218
      ],
      "min": [
        -0.9999935626983643,
        -0.9999906420707703,
        -0.999951183795929
      ],
      "type": "VEC3"
    },
    {
      "bufferView": 1,
      "byteOffset": 2621280,
      "componentType": 5126,
      "count": 44518,
      "max": [
        0.0,
        0.0
      ],
      "min": [
        0.0,
        0.0
      ],
      "type": "VEC2"
    },
    {
      "bufferView": 0,
      "byteOffset": 7678548,
      "componentType": 5125,
      "count": 259947,
      "type": "SCALAR"
    },
    {
      "bufferView": 2,
      "byteOffset": 8932272,
      "componentType": 5126,
      "count": 65532,
      "max": [
        1.3937469720840454,
        1.0786720514297485,
        7.793137073516846
      ],
      "min": [
        -1.3937469720840454,
        -0.7074559926986694,
        1.9728219509124756
      ],
      "type": "VEC3"
    },
    {
      "bufferView": 2,
      "byteOffset": 9718656,
      "componentType": 5126,
      "count": 65532,
      "max": [
        0.9999616742134094,
        0.9999963641166687,
        0.9999861717224121
      ],
      "min": [
        -0.9999616742134094,
        -0.9999874830245972,
        -0.999994158744812
      ],
      "type": "VEC3"
    },
    {
      "bufferView": 1,
      "byteOffset": 2977424,
      "componentType": 5126,
      "count": 65532,
      "max": [
        0.0,
        0.0
      ],
      "min": [
        0.0,
        0.0
      ],
      "type": "VEC2"
    },
    {
      "bufferView": 0,
      "byteOffset": 8718336,
      "componentType": 5125,
      "count": 389055,
      "type": "SCALAR"
    },
    {
      "bufferView": 2,
      "byteOffset": 10505040,
      "componentType": 5126,
      "count": 24945,
      "max": [
        1.401358962059021,
        1.0944939851760864,
        7.446855068206787
      ],
      "min": [
        -1.401358962059021,
        -0.7459930181503296,
        4.5897040367126465
      ],
      "type": "VEC3"
    },
    {
      "bufferView": 2,
      "byteOffset": 10804380,
      "componentType": 5126,
      "count": 24945,
      "max": [
        0.99998539686203,
        0.9998059272766113,
        0.9999052286148071
      ],
      "min": [
        -0.99998539686203,
        -0.9999976754188538,
        -0.9999955892562866
      ],
      "type": "VEC3"
    },
    {
      "bufferView": 1,
      "byteOffset": 3501680,
      "componentType": 5126,
      "count": 24945,
      "max": [
        0.0,
        0.0
      ],
      "min": [
        0.0,
        0.0
      ],
      "type": "VEC2"
    },
    {
      "bufferView": 0,
      "byteOffset": 10274556,
      "componentType": 5125,
      "count": 145185,
      "type": "SCALAR"
    }
  ],
  "asset": {
    "extras": {
      "author": "Huargenn (https://sketchfab.com/Huargenn)",
      "license": "CC-BY-4.0 (http://creativecommons.org/licenses/by/4.0/)",
      "source": "https://sketchfab.com/3d-models/skeleton-c5c20626d35e4689b2f2d23c5b262171",
      "title": "Skeleton"
    },
    "generator": "Sketchfab-12.67.0",
    "version": "2.0"
  },
  "bufferViews": [
    {
      "buffer": 0,
      "byteLength": 10855296,
      "name": "floatBufferViews",
      "target": 34963
    },
    {
      "buffer": 0,
      "byteLength": 3701240,
      "byteOffset": 10855296,
      "byteStride": 8,
      "name": "floatBufferViews",
      "target": 34962
    },
    {
      "buffer": 0,
      "byteLength": 11103720,
      "byteOffset": 14556536,
      "byteStride": 12,
      "name": "floatBufferViews",
      "target": 34962
    }
  ],
  "buffers": [
    {
      "byteLength": 25660256,
      "uri": "scene.bin"
    }
  ],
  "images": [
    {
      "uri": "textures/Scene_-_Root_baseColor.jpeg"
    }
  ],
  "materials": [
    {
      "doubleSided": true,
      "name": "Scene_-_Root",
      "pbrMetallicRoughness": {
        "baseColorTexture": {
          "index": 0
        },
        "metallicFactor": 0.0,
        "roughnessFactor": 0.6
      }
    }
  ],
  "meshes": [
    {
      "name": "Object_0",
      "primitives": [
        {
          "attributes": {
            "NORMAL": 1,
            "POSITION": 0,
            "TEXCOORD_0": 2
          },
          "indices": 3,
          "material": 0,
          "mode": 4
        }
      ]
    },
    {
      "name": "Object_1",
      "primitives": [
        {
          "attributes": {
            "NORMAL": 5,
            "POSITION": 4,
            "TEXCOORD_0": 6
          },
          "indices": 7,
          "material": 0,
          "mode": 4
        }
      ]
    },
    {
      "name": "Object_2",
      "primitives": [
        {
          "attributes": {
            "NORMAL": 9,
            "POSITION": 8,
            "TEXCOORD_0": 10
          },
          "indices": 11,
          "material": 0,
          "mode": 4
        }
      ]
    },
    {
      "name": "Object_3",
      "primitives": [
        {
          "attributes": {
            "NORMAL": 13,
            "POSITION": 12,
            "TEXCOORD_0": 14
          },
          "indices": 15,
          "material": 0,
          "mode": 4
        }
      ]
    },
    {
      "name": "Object_4",
      "primitives": [
        {
          "attributes": {
            "NORMAL": 17,
            "POSITION": 16,
            "TEXCOORD_0": 18
          },
          "indices": 19,
          "material": 0,
          "mode": 4
        }
      ]
    },
    {
      "name": "Object_5",
      "primitives": [
        {
          "attributes": {
            "NORMAL": 21,
            "POSITION": 20,
            "TEXCOORD_0": 22
          },
          "indices": 23,
          "material": 0,
          "mode": 4
        }
      ]
    },
    {
      "name": "Object_6",
      "primitives": [
        {
          "attributes": {
            "NORMAL": 25,
            "POSITION": 24,
            "TEXCOORD_0": 26
          },
          "indices": 27,
          "material": 0,
          "mode": 4
        }
      ]
    },
    {
      "name": "Object_7",
      "primitives": [
        {
          "attributes": {
            "NORMAL": 29,
            "POSITION": 28,
            "TEXCOORD_0": 30
          },
          "indices": 31,
          "material": 0,
          "mode": 4
        }
      ]
    }
  ],
  "nodes": [
    {
      "children": [
        1
      ],
      "matrix": [
        1.0,
        0.0,
        0.0,
        0.0,
        0.0,
        2.220446049250313e-16,
        -1.0,
        0.0,
        0.0,
        1.0,
        2.220446049250313e-16,
        0.0,
        0.0,
        0.0,
        0.0,
        1.0
      ],
      "name": "Sketchfab_model"
    },
    {
      "children": [
        2,
        3,
        4,
        5,
        6,
        7,
        8,
        9
      ],
      "name": "9ccda17a963f4d50a03ee5f51a900251.obj.cleaner"
    },
    {
      "mesh": 0,
      "name": "Object_2"
    },
    {
      "mesh": 1,
      "name": "Object_3"
    },
    {
      "mesh": 2,
      "name": "Object_4"
    },
    {
      "mesh": 3,
      "name": "Object_5"
    },
    {
      "mesh": 4,
      "name": "Object_6"
    },
    {
      "mesh": 5,
      "name": "Object_7"
    },
    {
      "mesh": 6,
      "name": "Object_8"
    },
    {
      "mesh": 7,
      "name": "Object_9"
    }
  ],
  "samplers": [
    {
      "magFilter": 9729,
      "minFilter": 9987,
      "wrapS": 10497,
      "wrapT": 10497
    }
  ],
  "scene": 0,
  "scenes": [
    {
      "name": "Sketchfab_Scene",
      "nodes": [
        0
      ]
    }
  ],
  "textures": [
    {
      "sampler": 0,
      "source": 0
    }
  ]
}
